<svg xmlns="http://www.w3.org/2000/svg" viewBox="0 0 509.14 157.7"><title>Ресурс 1</title><g id="Слой_2" data-name="Слой 2"><g id="Layer_1" data-name="Layer 1"><path d="M76.44,81.35v25.32H63.74V43.33H87.62q10.83,0,16.94,4.94T110.68,62a14,14,0,0,1-2.56,8.44,18,18,0,0,1-7.53,5.7q5.61,1.65,8.07,5.52a17.51,17.51,0,0,1,2.46,9.57v4.65a23,23,0,0,0,.72,5.55,7.61,7.61,0,0,0,2.46,4.28v.91H101.2A7.16,7.16,0,0,1,98.93,102a39.25,39.25,0,0,1-.52-6.18V91.36q0-4.74-2.59-7.37a9.76,9.76,0,0,0-7.29-2.63Zm0-9.79h11q5.35,0,8-2.26T98,62.61a9.22,9.22,0,0,0-2.63-6.92q-2.63-2.56-7.77-2.57H76.44Z" fill="#fff"/><path d="M172.76,43.33v42q0,10.66-7,16.45t-18.45,5.79q-11.35,0-18.34-5.79t-7-16.45v-42h12.75v42q0,6.26,3.35,9.37t9.22,3.1q6,0,9.35-3.08T160,85.32v-42Z" fill="#fff"/><polygon points="205.34 89.84 206.12 93.28 206.38 93.28 207.12 89.92 220.91 43.33 234.31 43.33 212.78 106.67 199.73 106.67 178.24 43.33 191.64 43.33 205.34 89.84" fill="#fff"/><polygon points="279.47 78.83 253.23 78.83 253.23 96.88 283.9 96.88 283.9 106.67 240.53 106.67 240.53 43.33 283.82 43.33 283.82 53.12 253.23 53.12 253.23 69.04 279.47 69.04 279.47 78.83" fill="#fff"/><polygon points="342.89 106.67 330.23 106.67 304.65 63.39 304.39 63.43 304.39 106.67 291.69 106.67 291.69 43.33 304.39 43.33 329.97 86.57 330.23 86.53 330.23 43.33 342.89 43.33 342.89 106.67" fill="#fff"/><polygon points="398.53 53.12 380.61 53.12 380.61 106.67 367.9 106.67 367.9 53.12 350.07 53.12 350.07 43.33 398.53 43.33 398.53 53.12" fill="#fff"/><path d="M439,90.14a7.35,7.35,0,0,0-2.59-5.87q-2.59-2.22-9.07-4.17-11.31-3.26-17.1-7.74a14.67,14.67,0,0,1-5.79-12.27,15.2,15.2,0,0,1,6.63-12.73q6.63-4.94,16.94-4.94T445,48a16.6,16.6,0,0,1,6.35,13.68l-.09.26H439A9.24,9.24,0,0,0,436,54.8q-2.93-2.72-8.24-2.72-5.09,0-7.87,2.26a7.13,7.13,0,0,0-2.78,5.79,6.21,6.21,0,0,0,3,5.29q3,2.07,10.29,4.37,10.48,2.92,15.88,7.7a16,16,0,0,1,5.39,12.57,15.05,15.05,0,0,1-6.42,12.83q-6.42,4.7-16.94,4.7a30.92,30.92,0,0,1-18.05-5.33,16.64,16.64,0,0,1-7.48-14.94l.09-.26h12.36q0,5.65,3.46,8.29T428.33,98q5.18,0,7.92-2.13a6.86,6.86,0,0,0,2.74-5.7" fill="#fff"/><path d="M468.21,157.7H0L40.93,0H509.14ZM19.14,144.91H456.69L490,12.79H52.45Z" fill="#fff"/></g></g></svg>